<svg width="17" height="17" viewBox="0 0 17 17" fill="none" xmlns="http://www.w3.org/2000/svg">
<g opacity="0.5">
<path d="M12.375 7.73242C12.0931 7.73242 11.8594 7.49867 11.8594 7.2168V5.8418C11.8594 3.67617 11.2475 2.23242 8.25 2.23242C5.2525 2.23242 4.64062 3.67617 4.64062 5.8418V7.2168C4.64062 7.49867 4.40688 7.73242 4.125 7.73242C3.84313 7.73242 3.60938 7.49867 3.60938 7.2168V5.8418C3.60938 3.84805 4.09062 1.20117 8.25 1.20117C12.4094 1.20117 12.8906 3.84805 12.8906 5.8418V7.2168C12.8906 7.49867 12.6569 7.73242 12.375 7.73242Z" fill="#313131" fill-opacity="0.72"/>
<path d="M8.25 13.5762C7.01938 13.5762 6.01562 12.5724 6.01562 11.3418C6.01562 10.1112 7.01938 9.10742 8.25 9.10742C9.48062 9.10742 10.4844 10.1112 10.4844 11.3418C10.4844 12.5724 9.48062 13.5762 8.25 13.5762ZM8.25 10.1387C7.59 10.1387 7.04688 10.6818 7.04688 11.3418C7.04688 12.0018 7.59 12.5449 8.25 12.5449C8.91 12.5449 9.45312 12.0018 9.45312 11.3418C9.45312 10.6818 8.91 10.1387 8.25 10.1387Z" fill="#313131" fill-opacity="0.72"/>
<path d="M11.6875 15.9824H4.8125C1.78063 15.9824 0.859375 15.0612 0.859375 12.0293V10.6543C0.859375 7.62242 1.78063 6.70117 4.8125 6.70117H11.6875C14.7194 6.70117 15.6406 7.62242 15.6406 10.6543V12.0293C15.6406 15.0612 14.7194 15.9824 11.6875 15.9824ZM4.8125 7.73242C2.35125 7.73242 1.89062 8.19992 1.89062 10.6543V12.0293C1.89062 14.4837 2.35125 14.9512 4.8125 14.9512H11.6875C14.1488 14.9512 14.6094 14.4837 14.6094 12.0293V10.6543C14.6094 8.19992 14.1488 7.73242 11.6875 7.73242H4.8125Z" fill="#313131"/>
</g>
</svg>
